<svg xmlns="http://www.w3.org/2000/svg" width="1280" height="720" viewBox="0 0 1280 720">
  <style>
    .label { font: 700 34px system-ui, -apple-system, BlinkMacSystemFont, "Segoe UI", sans-serif; fill: #f3efe6; }
    .small { font: 500 18px system-ui, -apple-system, BlinkMacSystemFont, "Segoe UI", sans-serif; fill: #9e988f; }
    .code { font: 18px ui-monospace, SFMono-Regular, Menlo, Consolas, monospace; fill: #ddd6ca; }
  </style>
  <rect width="1280" height="720" fill="#090909"/>
  <rect x="44" y="44" width="1192" height="632" rx="8" fill="#121211" stroke="#2a2a28"/>
  <g opacity="0.18" stroke="#4c4c47">
    <path d="M118 215 H1162"/>
    <path d="M640 94 V596"/>
    <path d="M206 94 V596"/>
    <path d="M1074 94 V596"/>
  </g>
  <circle cx="640" cy="215" r="122" fill="none" stroke="#61d6c8" stroke-width="9"/>
  <path d="M421 485 C536 360 703 616 850 410" fill="none" stroke="#b8e986" stroke-width="8"/>
  <circle cx="421" cy="485" r="13" fill="#f0c674"/>
  <circle cx="850" cy="410" r="13" fill="#e06c75"/>
  
  <text x="72" y="100" class="small">generated by monocurl-documenter</text>
  <text x="72" y="145" class="label">Monocurl image block</text>
  <rect x="54" y="270" width="1172" height="366" rx="8" fill="#0d0d0c" stroke="#2a2a28"/>
  <text x="72" y="312" class="code">import std.math</text><text x="72" y="340" class="code">import std.mesh</text><text x="72" y="368" class="code">import std.anim</text><text x="72" y="396" class="code">import std.color</text><text x="72" y="424" class="code">background = [0.035, 0.045, 0.060, 1]</text><text x="72" y="452" class="code">let tile = |width| fill{alpha{0.12} CYAN} stroke{CYAN} Square(</text><text x="72" y="480" class="code">mesh square = tile(1)</text>
</svg>